# xmcd
#
# Track frame offsets:
#	150
#	12518
#	18245
#	31183
#	41208
#	52400
#	64200
#	74110
#	83695
#	100900
#	109360
#	125575
#	142410
#	155518
#	166345
#	176270
#	196313
#	209313
#	230089
#	243057
#	267872
#
# Disc length: 3716 seconds
#
# Revision: 0
# Processed by: cddbd v1.4PL0 Copyright (c) Steve Scherf et al.
# Submitted via: audiograbber 1.81.03
#
DISCID=380e8215
DTITLE=Nitty Gritty Dirt Band - Will The Circle Be Unbroken Disc 2
DYEAR=1972
DGENRE=Bluegrass
TTITLE0=Lonesome Fiddle Blues
TTITLE1=Cannonball Rag
TTITLE2=Avalanche
TTITLE3=Flint Hill Special
TTITLE4=Togary Mountain
TTITLE5=Earl's Breakdown
TTITLE6=Orange Blossom Special
TTITLE7=Wabash Cannonball
TTITLE8=Lost Highway
TTITLE9=First Meeting (Dialogue) - Doc Watson and Merle Travis
TTITLE10=Way Downtown
TTITLE11=Down Yonder
TTITLE12=Pins and Needles (In My Heart)
TTITLE13=Honky Tonk Blues
TTITLE14=Sailin' On To Hawaii
TTITLE15=I'm Thinkin' Tonight of My Blue Eyes 
TTITLE16=I am A Pilgrim
TTITLE17=Wildwood Flower
TTITLE18=Soldier's Joy
TTITLE19=Will The Circle Be Unbroken
TTITLE20=Both Sides Now
EXTD=
EXTT0=
EXTT1=
EXTT2=
EXTT3=
EXTT4=
EXTT5=
EXTT6=
EXTT7=
EXTT8=
EXTT9=
EXTT10=
EXTT11=
EXTT12=
EXTT13=
EXTT14=
EXTT15=
EXTT16=
EXTT17=
EXTT18=
EXTT19=
EXTT20=
PLAYORDER=
